<?xml version="1.0" encoding="UTF-8" standalone="no"?>
<svg
   xmlns:dc="http://purl.org/dc/elements/1.1/"
   xmlns:cc="http://creativecommons.org/ns#"
   xmlns:rdf="http://www.w3.org/1999/02/22-rdf-syntax-ns#"
   xmlns:svg="http://www.w3.org/2000/svg"
   xmlns="http://www.w3.org/2000/svg"
   id="svg55"
   version="1.1"
   viewBox="50 90 85 90"
   height="297mm"
   width="210mm">
  <defs
     id="defs49">
    <rect
       id="rect59"
       height="22.183371"
       width="130.42753"
       y="83.655362"
       x="62.00653" />
  </defs>
  <metadata
     id="metadata52">
    <rdf:RDF>
      <cc:Work
         rdf:about="">
        <dc:format>image/svg+xml</dc:format>
        <dc:type
           rdf:resource="http://purl.org/dc/dcmitype/StillImage" />
        <dc:title></dc:title>
      </cc:Work>
    </rdf:RDF>
  </metadata>
  <g style="fill: white;"
     id="layer1">
    <g
       style="font-size:9.87778px;line-height:1.25;font-family:sans-serif;white-space:pre;shape-inside:url(#rect59)"
       id="text57"
       transform="translate(5.8799296,17.639789)"
       aria-label="Артурка">
      <path
         id="path163"
         d="M 67.705618,92.001025 H 66.687936 L 65.983758,89.999424 H 62.87766 l -0.704178,2.001601 h -0.96945 l 2.614139,-7.181648 h 1.273307 z m -2.016071,-2.821534 -1.258838,-3.525711 -1.263661,3.525711 z" />
      <path
         id="path165"
         d="m 74.672889,84.825973 q 0,0.655946 -0.188102,1.200961 -0.188102,0.540191 -0.530545,0.916395 -0.318327,0.356912 -0.752409,0.554661 -0.429259,0.192925 -0.911572,0.192925 -0.419613,0 -0.762056,-0.09164 -0.337619,-0.09164 -0.689708,-0.284565 v 2.257227 h -0.906749 v -7.374573 h 0.906749 v 0.564306 q 0.361735,-0.303857 0.810287,-0.506429 0.453374,-0.207395 0.964627,-0.207395 0.974273,0 1.514464,0.73794 0.545014,0.733117 0.545014,2.040187 z m -0.935688,0.02412 q 0,-0.974273 -0.332796,-1.456587 -0.332796,-0.482313 -1.022505,-0.482313 -0.390674,0 -0.786171,0.168809 -0.395497,0.16881 -0.757232,0.443729 v 3.053044 q 0.385851,0.173633 0.66077,0.236334 0.279741,0.0627 0.63183,0.0627 0.757232,0 1.181668,-0.511252 0.424436,-0.511252 0.424436,-1.514464 z" />
      <path
         id="path167"
         d="m 80.73647,81.332201 h -1.948547 v 4.591624 h -0.906749 v -4.591624 h -1.948547 v -0.795817 h 4.803843 z" />
      <path
         id="path169"
         d="m 86.720618,79.24424 -3.144684,7.374573 h -0.96945 l 1.003212,-2.247581 -2.146295,-5.126992 h 0.98392 l 1.654335,3.993555 1.668804,-3.993555 z" />
      <path
         id="path171"
         d="m 92.273484,83.562022 q 0,0.655946 -0.188102,1.200961 -0.188102,0.540191 -0.530545,0.916395 -0.318326,0.356912 -0.752409,0.554661 -0.429259,0.192925 -0.911572,0.192925 -0.419613,0 -0.762055,-0.09164 -0.33762,-0.09164 -0.689709,-0.284565 v 2.257227 h -0.906749 v -7.374573 h 0.906749 v 0.564306 q 0.361735,-0.303857 0.810287,-0.506429 0.453375,-0.207395 0.964627,-0.207395 0.974273,0 1.514464,0.73794 0.545014,0.733117 0.545014,2.040187 z m -0.935688,0.02412 q 0,-0.974273 -0.332796,-1.456587 -0.332796,-0.482313 -1.022505,-0.482313 -0.390673,0 -0.78617,0.168809 -0.395498,0.16881 -0.757233,0.443729 v 3.053044 q 0.385851,0.173633 0.66077,0.236334 0.279742,0.0627 0.63183,0.0627 0.757233,0 1.181669,-0.511252 0.424435,-0.511252 0.424435,-1.514464 z" />
      <path
         id="path173"
         d="m 99.555487,90.741909 h -1.186492 l -2.237934,-2.469445 h -0.49196 v 2.469445 h -0.906749 v -5.387441 h 0.906749 v 2.324751 q 0.448552,0 0.72347,-0.159164 0.274919,-0.163986 0.467844,-0.520898 0.06752,-0.130225 0.130225,-0.274919 0.06752,-0.149517 0.130225,-0.284565 0.250803,-0.545014 0.627007,-0.81511 0.376205,-0.270095 1.080382,-0.270095 h 0.41479 v 0.781347 h -0.40032 q -0.381028,0 -0.598069,0.163987 -0.212218,0.159163 -0.385851,0.564307 -0.192925,0.453374 -0.409966,0.680062 -0.212218,0.221864 -0.453375,0.337619 z" />
      <path
         id="path175"
         d="m 105.57874,92.041494 h -0.90193 v -0.573953 q -0.12057,0.08199 -0.32797,0.231511 -0.20257,0.144694 -0.3955,0.23151 -0.22668,0.110932 -0.52089,0.183279 -0.29422,0.07717 -0.68971,0.07717 -0.72831,0 -1.23475,-0.482313 -0.50643,-0.482314 -0.50643,-1.2299 0,-0.612538 0.26045,-0.988742 0.26528,-0.381028 0.75242,-0.598069 0.49196,-0.217041 1.18168,-0.294211 0.68971,-0.07717 1.4807,-0.115755 V 88.34215 q 0,-0.308681 -0.11093,-0.511253 -0.10611,-0.202571 -0.30868,-0.318326 -0.19292,-0.110933 -0.46302,-0.149518 -0.27009,-0.03859 -0.56431,-0.03859 -0.35691,0 -0.79583,0.09646 -0.4389,0.09164 -0.90675,0.270096 h -0.0482 V 86.7698 q 0.26527,-0.07235 0.76688,-0.159164 0.50162,-0.08682 0.98876,-0.08682 0.56913,0 0.98874,0.09646 0.42444,0.09164 0.73312,0.318327 0.30385,0.221864 0.46302,0.573953 0.15916,0.352088 0.15916,0.872987 z m -0.90193,-1.326362 v -1.499995 q -0.41478,0.02412 -0.97909,0.07235 -0.55949,0.04823 -0.88746,0.139871 -0.39069,0.110932 -0.63185,0.347266 -0.24115,0.23151 -0.24115,0.641477 0,0.463021 0.27974,0.699354 0.27974,0.231511 0.85371,0.231511 0.47749,0 0.87299,-0.183279 0.3955,-0.188103 0.73311,-0.448552 z" />
    </g>
    <g
       style="font-size:9.87777px;line-height:1.25;font-family:sans-serif;stroke-width:0.264583"
       id="text65"
       aria-label="Entertainment">
      <path
         id="path136"
         style="stroke-width:0.264583"
         d="m 60.035678,145.38118 h -4.731491 v -7.18164 h 4.731491 v 0.84887 h -3.776511 v 1.96784 h 3.776511 v 0.84887 h -3.776511 v 2.66719 h 3.776511 z" />
      <path
         id="path138"
         style="stroke-width:0.264583"
         d="m 64.1225,147.08803 h -0.906749 v -3.06751 q 0,-0.37138 -0.04341,-0.69453 -0.04341,-0.32797 -0.159163,-0.51125 -0.120578,-0.20257 -0.347265,-0.29904 -0.226688,-0.10128 -0.588422,-0.10128 -0.371381,0 -0.776524,0.18328 -0.405143,0.18327 -0.776524,0.46784 v 4.02249 h -0.906749 v -5.38744 h 0.906749 v 0.59807 q 0.424435,-0.35209 0.877809,-0.54984 0.453375,-0.19774 0.930865,-0.19774 0.872986,0 1.331183,0.52572 0.458198,0.52572 0.458198,1.51446 z" />
      <path
         id="path140"
         style="stroke-width:0.264583"
         d="m 65.743317,150.99694 q -0.255626,0.0675 -0.559484,0.11093 -0.299034,0.0434 -0.535367,0.0434 -0.824755,0 -1.254014,-0.44373 -0.429258,-0.44373 -0.429258,-1.42282 v -2.86494 h -0.612538 v -0.76206 h 0.612538 v -1.54822 h 0.906748 v 1.54822 h 1.871375 v 0.76206 h -1.871375 v 2.45497 q 0,0.42444 0.01929,0.66559 0.01929,0.23634 0.135047,0.44373 0.106109,0.19293 0.289388,0.28457 0.188102,0.0868 0.569129,0.0868 0.221864,0 0.463021,-0.0627 0.241156,-0.0675 0.347265,-0.11093 h 0.04823 z" />
      <path
         id="path142"
         style="stroke-width:0.264583"
         d="m 71.30796,152.9655 h -3.969436 q 0,0.49679 0.149517,0.86817 0.149517,0.36655 0.409966,0.60289 0.250802,0.23151 0.593245,0.34726 0.347265,0.11576 0.762054,0.11576 0.549837,0 1.104497,-0.21704 0.559483,-0.22187 0.795816,-0.43408 h 0.04823 v 0.98874 q -0.458198,0.19292 -0.935687,0.32315 -0.47749,0.13022 -1.003212,0.13022 -1.34083,0 -2.093238,-0.72347 -0.752408,-0.72829 -0.752408,-2.0643 0,-1.32154 0.718646,-2.09806 0.72347,-0.77652 1.900313,-0.77652 1.090028,0 1.67845,0.63665 0.593245,0.63665 0.593245,1.80867 z m -0.882633,-0.69453 q -0.0048,-0.71382 -0.361735,-1.10449 -0.352088,-0.39068 -1.075558,-0.39068 -0.728293,0 -1.162374,0.42926 -0.429259,0.42926 -0.487136,1.06591 z" />
      <path
         id="path144"
         style="stroke-width:0.264583"
         d="m 78.024487,154.19905 h -0.04823 q -0.202572,-0.0482 -0.395497,-0.0675 -0.188102,-0.0241 -0.448551,-0.0241 -0.419612,0 -0.810286,0.1881 -0.390674,0.18328 -0.752408,0.47749 v 3.82474 h -0.906749 v -5.38744 h 0.906749 v 0.79582 q 0.54019,-0.43408 0.950156,-0.61254 0.41479,-0.18328 0.844048,-0.18328 0.236333,0 0.342442,0.0145 0.106109,0.01 0.318327,0.0434 z" />
      <path
         id="path146"
         style="stroke-width:0.264583"
         d="m 84.107647,160.04845 q -0.255626,0.0675 -0.559483,0.11093 -0.299034,0.0434 -0.535367,0.0434 -0.824756,0 -1.254014,-0.44373 -0.429259,-0.44373 -0.429259,-1.42282 v -2.86494 h -0.612537 v -0.76206 h 0.612537 v -1.54822 h 0.906749 v 1.54822 h 1.871374 v 0.76206 h -1.871374 v 2.45497 q 0,0.42444 0.01929,0.66559 0.01929,0.23634 0.135048,0.44373 0.106109,0.19293 0.289388,0.28457 0.188102,0.0868 0.569129,0.0868 0.221864,0 0.46302,-0.0627 0.241157,-0.0675 0.347266,-0.11093 h 0.04823 z" />
      <path
         id="path148"
         style="stroke-width:0.264583"
         d="M 91.752001,159.68095 H 90.850075 V 159.107 q -0.120578,0.082 -0.327973,0.23151 -0.202571,0.14469 -0.395496,0.23151 -0.226687,0.11093 -0.520898,0.18328 -0.294211,0.0772 -0.689708,0.0772 -0.728293,0 -1.234721,-0.48232 -0.506429,-0.48231 -0.506429,-1.22989 0,-0.61254 0.260449,-0.98875 0.265272,-0.38102 0.752408,-0.59806 0.49196,-0.21704 1.181667,-0.29422 0.689708,-0.0772 1.480701,-0.11575 v -0.13987 q 0,-0.30868 -0.110932,-0.51125 -0.106109,-0.20257 -0.30868,-0.31833 -0.192925,-0.11093 -0.463021,-0.14952 -0.270095,-0.0386 -0.564306,-0.0386 -0.356911,0 -0.795816,0.0965 -0.438905,0.0916 -0.906749,0.2701 h -0.04823 v -0.92122 q 0.265272,-0.0724 0.766878,-0.15916 0.501605,-0.0868 0.988741,-0.0868 0.56913,0 0.988742,0.0965 0.424435,0.0916 0.733116,0.31833 0.303857,0.22186 0.46302,0.57395 0.159164,0.35209 0.159164,0.87299 z m -0.901926,-1.32636 v -1.49999 q -0.414789,0.0241 -0.979095,0.0723 -0.559483,0.0482 -0.887456,0.13987 -0.390674,0.11094 -0.63183,0.34727 -0.241157,0.23151 -0.241157,0.64147 0,0.46303 0.279742,0.69936 0.279741,0.23151 0.853694,0.23151 0.47749,0 0.872986,-0.18328 0.395497,-0.1881 0.733116,-0.44855 z" />
      <path
         id="path150"
         style="stroke-width:0.264583"
         d="M 95.750183,153.91251 H 94.727679 V 152.972 h 1.022504 z m -0.05788,6.28936 h -0.906748 v -5.38744 h 0.906748 z" />
      <path
         id="path152"
         style="stroke-width:0.264583"
         d="m 102.82455,158.16577 h -0.90676 v -3.06751 q 0,-0.37138 -0.0434,-0.69453 -0.0434,-0.32797 -0.15916,-0.51125 -0.12058,-0.20257 -0.34726,-0.29904 -0.22669,-0.10128 -0.58842,-0.10128 -0.37139,0 -0.77653,0.18328 -0.405148,0.18327 -0.776529,0.46784 v 4.02249 h -0.906748 v -5.38744 h 0.906748 v 0.59807 q 0.424436,-0.35209 0.877809,-0.54984 0.45337,-0.19774 0.93087,-0.19774 0.87298,0 1.33118,0.52572 0.45821,0.52572 0.45821,1.51446 z" />
      <path
         id="path154"
         style="stroke-width:0.264583"
         d="m 113.38933,152.51515 h -0.90675 v -3.06751 q 0,-0.34727 -0.0338,-0.67042 -0.0289,-0.32315 -0.13022,-0.51607 -0.11093,-0.2074 -0.31833,-0.3135 -0.20739,-0.10611 -0.59807,-0.10611 -0.38102,0 -0.76205,0.19292 -0.38103,0.1881 -0.76206,0.48231 0.0145,0.11094 0.0241,0.26045 0.01,0.1447 0.01,0.28939 v 3.44854 h -0.90675 v -3.06751 q 0,-0.35691 -0.0338,-0.67524 -0.0289,-0.32315 -0.13023,-0.51607 -0.11093,-0.2074 -0.31833,-0.30868 -0.20739,-0.10611 -0.59806,-0.10611 -0.37138,0 -0.74759,0.18328 -0.37138,0.18327 -0.74276,0.46784 v 4.02249 h -0.90675 v -5.38744 h 0.90675 v 0.59807 q 0.42443,-0.35209 0.84405,-0.54984 0.42443,-0.19774 0.90192,-0.19774 0.54984,0 0.93087,0.23151 0.38585,0.23151 0.57395,0.64147 0.54984,-0.46302 1.00321,-0.66559 0.45337,-0.20739 0.96945,-0.20739 0.88746,0 1.30707,0.54019 0.42443,0.53536 0.42443,1.49999 z" />
      <path
         id="path156"
         style="stroke-width:0.264583"
         d="m 116.2356,145.55385 h -3.96943 q 0,0.49679 0.14951,0.86817 0.14952,0.36655 0.40997,0.60289 0.2508,0.23151 0.59324,0.34726 0.34727,0.11576 0.76206,0.11576 0.54983,0 1.10449,-0.21704 0.55949,-0.22187 0.79582,-0.43408 h 0.0482 v 0.98874 q -0.45819,0.19292 -0.93568,0.32315 -0.47749,0.13022 -1.00322,0.13022 -1.34083,0 -2.09323,-0.72347 -0.75241,-0.72829 -0.75241,-2.0643 0,-1.32154 0.71864,-2.09806 0.72347,-0.77652 1.90032,-0.77652 1.09002,0 1.67845,0.63665 0.59324,0.63665 0.59324,1.80867 z m -0.88263,-0.69453 q -0.005,-0.71382 -0.36174,-1.10449 -0.35208,-0.39068 -1.07555,-0.39068 -0.7283,0 -1.16238,0.42926 -0.42926,0.42926 -0.48713,1.06591 z" />
      <path
         id="path158"
         style="stroke-width:0.264583"
         d="m 120.73265,145.88405 h -0.90675 v -3.06751 q 0,-0.37138 -0.0434,-0.69453 -0.0434,-0.32797 -0.15916,-0.51125 -0.12058,-0.20257 -0.34727,-0.29904 -0.22668,-0.10128 -0.58842,-0.10128 -0.37138,0 -0.77652,0.18328 -0.40515,0.18327 -0.77653,0.46784 v 4.02249 h -0.90675 v -5.38744 h 0.90675 v 0.59807 q 0.42444,-0.35209 0.87781,-0.54984 0.45338,-0.19774 0.93087,-0.19774 0.87298,0 1.33118,0.52572 0.4582,0.52572 0.4582,1.51446 z" />
      <path
         id="path160"
         style="stroke-width:0.264583"
         d="m 125.09005,145.33295 q -0.25562,0.0675 -0.55948,0.11093 -0.29903,0.0434 -0.53537,0.0434 -0.82475,0 -1.25401,-0.44373 -0.42926,-0.44373 -0.42926,-1.42282 v -2.86494 h -0.61254 v -0.76206 h 0.61254 v -1.54822 h 0.90675 v 1.54822 h 1.87137 v 0.76206 h -1.87137 v 2.45497 q 0,0.42444 0.0193,0.66559 0.0193,0.23634 0.13505,0.44373 0.10611,0.19293 0.28939,0.28457 0.1881,0.0868 0.56913,0.0868 0.22186,0 0.46302,-0.0627 0.24115,-0.0675 0.34726,-0.11093 h 0.0482 z" />
    </g>
  </g>
</svg>
